<mxfile host="app.diagrams.net" modified="2022-03-15T02:41:14.575Z" agent="5.0 (Windows NT 10.0; Win64; x64) AppleWebKit/537.36 (KHTML, like Gecko) Chrome/99.0.4844.51 Safari/537.36" etag="jw7y08dggZVB6Vp9ZbTL" version="17.1.2" type="github">
  <diagram id="H7FxrnooSMvDZ_qjAYOR" name="Page-1">
    <mxGraphModel dx="1422" dy="762" grid="1" gridSize="10" guides="1" tooltips="1" connect="1" arrows="1" fold="1" page="1" pageScale="1" pageWidth="850" pageHeight="1100" math="0" shadow="0">
      <root>
        <mxCell id="0" />
        <mxCell id="1" parent="0" />
        <mxCell id="nDzrfC81OfkuwrfU7Lr_-1" value="PA Office" style="rounded=1;whiteSpace=wrap;html=1;" vertex="1" parent="1">
          <mxGeometry x="230" y="370" width="120" height="60" as="geometry" />
        </mxCell>
        <mxCell id="nDzrfC81OfkuwrfU7Lr_-3" value="Kit Laptop" style="rounded=1;whiteSpace=wrap;html=1;fillColor=#FFFFCC;" vertex="1" parent="1">
          <mxGeometry x="610" y="370" width="120" height="60" as="geometry" />
        </mxCell>
        <mxCell id="nDzrfC81OfkuwrfU7Lr_-4" value="Apple Server" style="rounded=1;whiteSpace=wrap;html=1;" vertex="1" parent="1">
          <mxGeometry x="800" y="370" width="120" height="60" as="geometry" />
        </mxCell>
        <mxCell id="nDzrfC81OfkuwrfU7Lr_-5" value="Apple Server" style="rounded=1;whiteSpace=wrap;html=1;" vertex="1" parent="1">
          <mxGeometry x="810" y="380" width="120" height="60" as="geometry" />
        </mxCell>
        <mxCell id="nDzrfC81OfkuwrfU7Lr_-6" value="" style="endArrow=classic;html=1;rounded=0;exitX=1;exitY=0.5;exitDx=0;exitDy=0;entryX=0;entryY=0.5;entryDx=0;entryDy=0;" edge="1" parent="1" source="nDzrfC81OfkuwrfU7Lr_-3" target="nDzrfC81OfkuwrfU7Lr_-4">
          <mxGeometry width="50" height="50" relative="1" as="geometry">
            <mxPoint x="800" y="410" as="sourcePoint" />
            <mxPoint x="850" y="360" as="targetPoint" />
          </mxGeometry>
        </mxCell>
        <mxCell id="nDzrfC81OfkuwrfU7Lr_-16" value="" style="endArrow=classic;html=1;rounded=0;exitX=1;exitY=0.5;exitDx=0;exitDy=0;entryX=0;entryY=0.5;entryDx=0;entryDy=0;startArrow=none;" edge="1" parent="1" source="nDzrfC81OfkuwrfU7Lr_-2" target="nDzrfC81OfkuwrfU7Lr_-3">
          <mxGeometry width="50" height="50" relative="1" as="geometry">
            <mxPoint x="800" y="410" as="sourcePoint" />
            <mxPoint x="850" y="360" as="targetPoint" />
          </mxGeometry>
        </mxCell>
        <mxCell id="nDzrfC81OfkuwrfU7Lr_-2" value="Meeting Software (Zoom)" style="rounded=1;whiteSpace=wrap;html=1;fillColor=#FFFFCC;" vertex="1" parent="1">
          <mxGeometry x="425" y="370" width="120" height="60" as="geometry" />
        </mxCell>
        <mxCell id="nDzrfC81OfkuwrfU7Lr_-17" value="" style="endArrow=none;html=1;rounded=0;exitX=1;exitY=0.5;exitDx=0;exitDy=0;entryX=0;entryY=0.5;entryDx=0;entryDy=0;" edge="1" parent="1" source="nDzrfC81OfkuwrfU7Lr_-1" target="nDzrfC81OfkuwrfU7Lr_-2">
          <mxGeometry width="50" height="50" relative="1" as="geometry">
            <mxPoint x="350" y="400" as="sourcePoint" />
            <mxPoint x="610" y="400" as="targetPoint" />
          </mxGeometry>
        </mxCell>
        <mxCell id="nDzrfC81OfkuwrfU7Lr_-18" value="ICD Office" style="swimlane;fillColor=#FFFFFF;" vertex="1" parent="1">
          <mxGeometry x="590" y="290" width="360" height="240" as="geometry" />
        </mxCell>
        <mxCell id="nDzrfC81OfkuwrfU7Lr_-19" value="Hard Disk" style="shape=cylinder3;whiteSpace=wrap;html=1;boundedLbl=1;backgroundOutline=1;size=15;fillColor=#FFFFCC;" vertex="1" parent="nDzrfC81OfkuwrfU7Lr_-18">
          <mxGeometry x="255" y="170" width="50" height="60" as="geometry" />
        </mxCell>
        <mxCell id="nDzrfC81OfkuwrfU7Lr_-20" value="" style="endArrow=classic;html=1;rounded=0;exitX=0.5;exitY=0;exitDx=0;exitDy=0;exitPerimeter=0;entryX=0.5;entryY=1;entryDx=0;entryDy=0;" edge="1" parent="1" source="nDzrfC81OfkuwrfU7Lr_-19" target="nDzrfC81OfkuwrfU7Lr_-5">
          <mxGeometry width="50" height="50" relative="1" as="geometry">
            <mxPoint x="800" y="400" as="sourcePoint" />
            <mxPoint x="850" y="350" as="targetPoint" />
          </mxGeometry>
        </mxCell>
        <mxCell id="nDzrfC81OfkuwrfU7Lr_-21" value="" style="endArrow=classic;html=1;rounded=0;exitX=0.5;exitY=1;exitDx=0;exitDy=0;entryX=0.5;entryY=1;entryDx=0;entryDy=0;entryPerimeter=0;" edge="1" parent="1" source="nDzrfC81OfkuwrfU7Lr_-1" target="nDzrfC81OfkuwrfU7Lr_-19">
          <mxGeometry width="50" height="50" relative="1" as="geometry">
            <mxPoint x="800" y="400" as="sourcePoint" />
            <mxPoint x="850" y="350" as="targetPoint" />
            <Array as="points">
              <mxPoint x="290" y="590" />
              <mxPoint x="870" y="590" />
            </Array>
          </mxGeometry>
        </mxCell>
      </root>
    </mxGraphModel>
  </diagram>
</mxfile>
